<svg width="18" height="18" viewBox="0 0 18 18" fill="none" xmlns="http://www.w3.org/2000/svg">
<path d="M6.5 0.25C8.22391 0.25 9.87721 0.934819 11.0962 2.15381C12.3152 3.37279 13 5.02609 13 6.75C13 8.36 12.41 9.84 11.44 10.98L11.71 11.25H12.5L17.5 16.25L16 17.75L11 12.75V11.96L10.73 11.69C9.55055 12.6968 8.05071 13.2499 6.5 13.25C4.77609 13.25 3.12279 12.5652 1.90381 11.3462C0.684819 10.1272 0 8.47391 0 6.75C0 5.02609 0.684819 3.37279 1.90381 2.15381C3.12279 0.934819 4.77609 0.25 6.5 0.25ZM6.5 2.25C4 2.25 2 4.25 2 6.75C2 9.25 4 11.25 6.5 11.25C9 11.25 11 9.25 11 6.75C11 4.25 9 2.25 6.5 2.25Z" fill="white"/>
</svg>
